<svg width="16" height="16" viewBox="0 0 16 16" fill="none" xmlns="http://www.w3.org/2000/svg">
<g clip-path="url(#clip0_0_650)">
<path d="M12 5.3335H12.6667C13.3739 5.3335 14.0522 5.61445 14.5523 6.11454C15.0524 6.61464 15.3333 7.29292 15.3333 8.00016C15.3333 8.70741 15.0524 9.38568 14.5523 9.88578C14.0522 10.3859 13.3739 10.6668 12.6667 10.6668H12" stroke="#9CA3AF" stroke-width="1.5" stroke-linecap="round" stroke-linejoin="round"/>
<path d="M1.33331 5.3335H12V11.3335C12 12.0407 11.719 12.719 11.2189 13.2191C10.7188 13.7192 10.0406 14.0002 9.33331 14.0002H3.99998C3.29274 14.0002 2.61446 13.7192 2.11436 13.2191C1.61426 12.719 1.33331 12.0407 1.33331 11.3335V5.3335Z" stroke="#9CA3AF" stroke-width="1.5" stroke-linecap="round" stroke-linejoin="round"/>
<path d="M4 0.666504V2.6665" stroke="#9CA3AF" stroke-width="1.5" stroke-linecap="round" stroke-linejoin="round"/>
<path d="M6.66669 0.666504V2.6665" stroke="#9CA3AF" stroke-width="1.5" stroke-linecap="round" stroke-linejoin="round"/>
<path d="M9.33331 0.666504V2.6665" stroke="#9CA3AF" stroke-width="1.5" stroke-linecap="round" stroke-linejoin="round"/>
</g>
<defs>
<clipPath id="clip0_0_650">
<rect width="16" height="16" fill="white"/>
</clipPath>
</defs>
</svg>
