<svg width="32" height="32" viewBox="0 0 32 32" fill="none" xmlns="http://www.w3.org/2000/svg">
<path d="M32 27.8917C32 30.1191 30.1905 31.9505 27.9349 31.9505H4.06506C1.83424 31.9505 0 30.1439 0 27.8917V4.05878C0 1.8314 1.80945 0 4.06506 0H27.9349C30.1658 0 32 1.80665 32 4.05878V27.8917Z" fill="#FB7185"/>
<g style="mix-blend-mode:color-burn">
<path d="M18.5902 25.2186L17.6 23.1998L22 19.9998L21.7382 16.3339L20.8 12.3998L19.6561 10.965H19.4082L19.433 9.99975L18.962 9.80176L18.9125 5.79248L17.2517 5.84198L0 22.7997V27.941C0 30.1684 1.80945 31.9998 4.06506 31.9998H14.4L20 26.3997L18.5902 25.2186Z" fill="#C9C9C9"/>
</g>
<g clip-path="url(#clip0_3292_45923)">
<path d="M21.5111 12.8857C21.5111 12.8291 21.5111 12.7726 21.5111 12.716C21.5111 12.3768 21.3985 12.094 21.2859 11.8113L21.9052 11.1893C22.1867 10.9066 22.2993 10.5673 22.243 10.1715L22.0741 9.21028C21.9615 8.81446 22.0741 8.4752 22.3556 8.19247L22.8622 7.68357C23.3126 7.23122 23.3126 6.55268 22.8622 6.10033L21.9052 5.13907C21.4548 4.68672 20.7793 4.68672 20.3289 5.13907L19.8222 5.64797C19.5407 5.93069 19.203 6.04378 18.8089 5.98724L17.8519 5.81761C17.5141 5.76106 17.12 5.87415 16.8385 6.15687L11.8281 11.1893C11.3778 11.6417 11.3778 12.3202 11.8281 12.7726L15.3185 16.2783C15.7689 16.7307 16.4444 16.7307 16.8948 16.2783L18.9215 14.2427C19.203 14.4124 19.4844 14.4689 19.8222 14.4689C20.0474 14.4689 20.2726 14.4124 20.4978 14.3558C21.117 15.0909 21.5111 15.9956 21.5111 17.0134V17.5789C21.5111 19.8972 19.4844 21.8197 16.9511 21.8197H8.84444C8.39407 21.7632 8 22.1024 8 22.6113C8 23.1202 8.39407 23.4595 8.84444 23.4595H11.8281C11.2089 24.0815 10.8148 24.9862 10.8148 26.004V26.1736C10.8148 26.3433 10.9274 26.4563 11.0963 26.4563H19.5407C19.7096 26.4563 19.8222 26.3433 19.8222 26.1736V26.004C19.8222 24.9296 19.3156 23.9118 18.5837 23.2333C21.2296 22.5548 23.2 20.2365 23.2 17.5223V16.9569C23.2 15.3736 22.5244 13.9035 21.5111 12.8857Z" fill="white"/>
<path d="M11.7155 17.1829C12.1659 17.6353 12.8414 17.6353 13.2918 17.1829L13.5733 16.9002C13.6859 16.7871 13.6859 16.6175 13.5733 16.5044L11.3777 14.2992C11.2652 14.1861 11.0963 14.1861 10.9837 14.2992L10.7022 14.5819C10.2518 15.0343 10.2518 15.7128 10.7022 16.1651L11.7155 17.1829ZM17.0074 18.9358H10.8148C10.3644 18.9358 9.97034 19.3316 9.97034 19.784C9.97034 20.2363 10.3644 20.6322 10.8148 20.6322H17.0074C17.4577 20.6322 17.8518 20.2363 17.8518 19.784C17.8518 19.3316 17.4577 18.9358 17.0074 18.9358Z" fill="white"/>
</g>
<defs>
<clipPath id="clip0_3292_45923">
<rect width="15.2" height="21.6" fill="white" transform="translate(8 4.7998)"/>
</clipPath>
</defs>
</svg>
