<svg width="20" height="21" viewBox="0 0 20 21" fill="none" xmlns="http://www.w3.org/2000/svg">
<path d="M19.7522 2.62723C17.5897 0.988501 14.261 0.00976548 10.8473 0.00976548C6.62616 0.00976548 3.18621 1.48349 1.41124 4.05345C0.577499 5.25969 0.116257 6.68966 0.0400077 8.30089C-0.0274913 9.73587 0.213755 11.3233 0.756247 13.0308C2.60872 7.4759 7.78364 3.12722 13.7498 3.12722C13.7498 3.12722 8.16738 4.59595 4.65744 9.14713C3.85656 10.1791 3.2137 11.3246 2.74997 12.5458C1.75866 14.9066 1.2487 17.4415 1.24999 20.002H3.74995C3.74995 20.002 3.36996 17.6145 4.02995 14.8695C5.00599 15.0088 5.99025 15.0827 6.97615 15.0908C9.27487 15.0908 10.9086 14.5933 12.1198 13.5258C13.2048 12.5696 13.8035 11.2833 14.4373 9.92336C15.4048 7.84465 16.501 5.48968 19.6847 3.67096C19.7745 3.61972 19.8502 3.547 19.905 3.45931C19.9598 3.37162 19.992 3.2717 19.9987 3.16851C20.0054 3.06532 19.9864 2.96208 19.9434 2.86805C19.9003 2.77402 19.8347 2.69213 19.7522 2.62973V2.62723Z" fill="white"/>
</svg>
