<svg width="24" height="24" viewBox="0 0 24 24" fill="none" xmlns="http://www.w3.org/2000/svg">
<path d="M11.9741 12.9597C14.7075 12.9597 16.9253 10.7291 16.9253 7.97983C16.9253 5.23055 14.7075 3 11.9741 3C9.24058 3 7.02286 5.23055 7.02286 7.97983C7.02286 10.7291 9.24058 12.9597 11.9741 12.9597ZM16.9253 14.464H15.1717C14.7591 14.464 14.3981 14.6715 14.1918 14.9827L12.954 16.7464C12.4898 17.4207 11.4583 17.4207 10.9941 16.7464L9.80791 14.9827C9.60161 14.6715 9.18901 14.464 8.82798 14.464H7.02286C4.80513 14.464 3 16.2795 3 18.562V20.3775C3 20.6888 3.25788 21 3.6189 21H20.3808C20.6903 21 20.9997 20.7406 20.9997 20.3775V18.562C20.9481 16.2795 19.143 14.464 16.9253 14.464Z" fill="white"/>
<path d="M12.5938 14.4121H11.5623C11.2012 14.4121 10.9434 14.7233 10.9434 15.0346C10.9434 15.3977 11.2528 15.6571 11.5623 15.6571H12.5938C12.9548 15.6571 13.2127 15.3458 13.2127 15.0346C13.2127 14.6715 12.9032 14.4121 12.5938 14.4121Z" fill="white"/>
</svg>
