<svg width="24" height="26" viewBox="0 0 24 26" fill="none" xmlns="http://www.w3.org/2000/svg">
<path fill-rule="evenodd" clip-rule="evenodd" d="M6.61536 1.75C6.61536 1.19771 7.06307 0.75 7.61536 0.75H14L21.3846 8.13462V19.1346C21.3846 19.6869 20.9369 20.1346 20.3846 20.1346H7.61536C7.06307 20.1346 6.61536 19.6869 6.61536 19.1346V1.75Z" fill="white" stroke="black" stroke-width="1.5" stroke-linejoin="round"/>
<path d="M14 0.75V8.13462H21.3846" stroke="black" stroke-width="1.5" stroke-linejoin="round"/>
<path fill-rule="evenodd" clip-rule="evenodd" d="M2 6.36523C2 5.81295 2.44772 5.36523 3 5.36523H9.38462L16.7692 12.7498V23.7498C16.7692 24.3021 16.3215 24.7498 15.7692 24.7498H3C2.44772 24.7498 2 24.3021 2 23.7498V6.36523Z" fill="white" stroke="black" stroke-width="1.5" stroke-linejoin="round"/>
<path d="M9.38464 5.36523V12.7498H16.7693" stroke="black" stroke-width="1.5" stroke-linejoin="round"/>
</svg>
