<svg width="32" height="32" viewBox="0 0 32 32" fill="none" xmlns="http://www.w3.org/2000/svg">
<path d="M32 27.8917C32 30.1191 30.1905 31.9505 27.9349 31.9505H4.06506C1.83424 31.9505 0 30.1439 0 27.8917V4.05878C0 1.8314 1.80945 0 4.06506 0H27.9349C30.1658 0 32 1.80665 32 4.05878V27.8917Z" fill="#EAB308"/>
<g style="mix-blend-mode:color-burn">
<path d="M23.2 22.0002L22.4 20.8002L18.8 14.8002L15.7397 12.0002V9.4995V9.6027L14.4 8.4002L13.2 9.2002L10.8 8.8002L7.2 7.2002L0 12.0002V27.9414C0 30.1688 1.80945 32.0002 4.06506 32.0002H15.3184L24.8 25.2191L23.2 22.0002Z" fill="#C9C9C9"/>
</g>
<g clip-path="url(#clip0_0_488)">
<path d="M7.2446 7.2439C6.1185 8.37 6.1185 10.1155 7.2446 11.2416L9.21527 13.2122L8.20178 14.2257C8.08917 14.3383 8.08917 14.5072 8.20178 14.6199L9.38419 15.8023C9.4968 15.9149 9.66571 15.9149 9.77832 15.8023L15.803 9.83393C15.9156 9.72132 15.9156 9.55241 15.803 9.4398L14.6206 8.25739C14.5079 8.14478 14.339 8.14478 14.2264 8.25739L13.2129 9.27088L11.2423 7.30021C10.1162 6.1178 8.31439 6.1178 7.2446 7.2439Z" fill="white"/>
<path d="M15.4088 11.8051L11.8053 15.4086C11.6927 15.5212 11.6927 15.6901 11.8053 15.8027L20.3073 24.3048C20.4199 24.4174 20.5326 24.4737 20.7015 24.4737L23.2352 24.4737L24.1361 25.3746C24.4739 25.7124 24.9807 25.7124 25.3185 25.3746C25.4874 25.2056 25.5437 24.9804 25.5437 24.7552C25.5437 24.53 25.4874 24.3048 25.3185 24.1358L24.4176 23.2913L24.4176 20.7575C24.4176 20.5886 24.3613 20.476 24.2487 20.3634L15.7466 11.8614C15.6903 11.6924 15.5214 11.6924 15.4088 11.8051ZM19.0123 18.6743L21.3771 21.0391C21.4897 21.1517 21.6024 21.3769 21.6024 21.5458C21.6024 21.7147 21.546 21.8836 21.3771 22.0526C21.0956 22.3341 20.6452 22.3341 20.3636 22.0526L17.9988 19.6878C17.7173 19.4062 17.7173 18.9558 17.9988 18.6743C18.2804 18.3927 18.7308 18.3927 19.0123 18.6743ZM16.4223 16.0842L17.2106 16.8725C17.3232 16.9851 17.4358 17.2103 17.4358 17.3792C17.4358 17.5482 17.3795 17.7171 17.2106 17.886C16.929 18.1675 16.4786 18.1675 16.1971 17.886L15.4088 17.0977C15.1273 16.8162 15.1273 16.3658 15.4088 16.0842C15.6903 15.8027 16.1408 15.8027 16.4223 16.0842Z" fill="white"/>
</g>
<defs>
<clipPath id="clip0_0_488">
<rect width="19.2" height="19.2" fill="white" transform="translate(6.40002 25.5996) rotate(-90)"/>
</clipPath>
</defs>
</svg>
