<svg width="16" height="16" viewBox="0 0 16 16" fill="none" xmlns="http://www.w3.org/2000/svg">
<g clip-path="url(#clip0_0_829)">
<path d="M9.15333 14C9.03612 14.2021 8.86789 14.3698 8.66548 14.4864C8.46307 14.6029 8.23358 14.6643 8 14.6643C7.76641 14.6643 7.53692 14.6029 7.33451 14.4864C7.1321 14.3698 6.96387 14.2021 6.84666 14" stroke="#7C3AED" stroke-width="1.5" stroke-linecap="round" stroke-linejoin="round"/>
<path d="M12.42 8.66683C12.1234 7.5811 11.982 6.45886 12 5.3335" stroke="#7C3AED" stroke-width="1.5" stroke-linecap="round" stroke-linejoin="round"/>
<path d="M4.17333 4.17334C4.05751 4.54908 3.99907 4.94015 4 5.33334C4 10 2 11.3333 2 11.3333H11.3333" stroke="#7C3AED" stroke-width="1.5" stroke-linecap="round" stroke-linejoin="round"/>
<path d="M12 5.33357C12.0011 4.60895 11.8053 3.89764 11.4336 3.27563C11.0618 2.65362 10.5281 2.14428 9.88941 1.802C9.25072 1.45972 8.53105 1.29737 7.80727 1.33228C7.08348 1.3672 6.38278 1.59807 5.78 2.00024" stroke="#7C3AED" stroke-width="1.5" stroke-linecap="round" stroke-linejoin="round"/>
<path d="M0.666672 0.666504L15.3333 15.3332" stroke="#7C3AED" stroke-width="1.5" stroke-linecap="round" stroke-linejoin="round"/>
</g>
<defs>
<clipPath id="clip0_0_829">
<rect width="16" height="16" fill="white"/>
</clipPath>
</defs>
</svg>
