<svg width="32" height="32" viewBox="0 0 32 32" fill="none" xmlns="http://www.w3.org/2000/svg">
<path d="M32 27.9349C32 30.1658 30.1905 32 27.9349 32H4.06507C1.83424 32 0 30.1905 0 27.9349V4.06507C0 1.83424 1.80945 0 4.06507 0H27.9349C30.1658 0 32 1.80945 32 4.06507V27.9349Z" fill="#F87171"/>
<g style="mix-blend-mode:color-burn">
<path d="M22 22L21.7769 21.653L22.8 21.2L19.06 8.85811C18.9121 8.36981 18.4202 8.07121 17.9187 8.16524L12.4 9.2L0 18V27.9349C0 30.1658 1.80945 32 4.06506 32H11.2L22.8 23.6L22 22Z" fill="#C9C9C9"/>
</g>
<g clip-path="url(#clip0_0_603)">
<path d="M14.3611 11.2734C14.013 10.792 13.6151 10.2625 13.3168 9.73295C12.9189 9.10716 12.0238 9.10716 11.6259 9.73295C9.98486 12.4768 7.44865 14.1616 7.2 17.098C7.00108 19.9862 9.33838 22.3931 12.173 22.5375C11.2281 21.1897 10.7805 19.553 10.88 17.9163C11.1286 15.1244 12.7697 13.1507 14.3611 11.2734Z" fill="white"/>
<path d="M25.6 17.9645C25.3016 14.2579 21.8703 12.1398 19.7816 8.52952C19.3838 7.80746 18.3395 7.80746 17.9416 8.52952C15.853 12.1398 12.4216 14.2579 12.1233 17.9645C11.8249 21.7192 15.0573 24.8 18.8368 24.8C22.6162 24.8 25.8487 21.7673 25.6 17.9645ZM21.6216 19.4086C21.6216 19.5049 21.5222 19.6012 21.4227 19.6012H19.9308V21.0453C19.9308 21.1416 19.8314 21.2378 19.7319 21.2378H18.0411C17.9416 21.2378 17.8422 21.1416 17.8422 21.0453V19.6012H16.3503C16.2508 19.6012 16.1514 19.5049 16.1514 19.4086V17.7719C16.1514 17.6757 16.2508 17.5794 16.3503 17.5794H17.8422V16.1353C17.8422 16.039 17.9416 15.9427 18.0411 15.9427H19.7319C19.8314 15.9427 19.9308 16.039 19.9308 16.1353V17.5794H21.4227C21.5222 17.5794 21.6216 17.6757 21.6216 17.7719V19.4086Z" fill="white"/>
</g>
<defs>
<clipPath id="clip0_0_603">
<rect width="18.4" height="16.8" fill="white" transform="translate(7.20001 8)"/>
</clipPath>
</defs>
</svg>
