<svg width="32" height="32" viewBox="0 0 32 32" fill="none" xmlns="http://www.w3.org/2000/svg">
<path d="M32 27.8917C32 30.1191 30.1905 31.9505 27.9349 31.9505H4.06506C1.83424 31.9505 0 30.1439 0 27.8917V4.05878C0 1.8314 1.80945 0 4.06506 0H27.9349C30.1658 0 32 1.80665 32 4.05878V27.8917Z" fill="#F472B6"/>
<g style="mix-blend-mode:color-burn">
<path d="M25.9291 24.8002L25.6 22.8002L25.9291 20.0002V13.2002L22.4 11.3654H26.3752L26.4 10.4002L25.9291 10.2022L21.6 7.2002H11.6H10.4L6 10.2022L0 17.349V27.9414C0 30.1688 1.80945 32.0002 4.06506 32.0002H18.8L23.2 27.2002L25.9291 24.8002Z" fill="#C9C9C9"/>
</g>
<g clip-path="url(#clip0_0_587)">
<path d="M21.4475 7.2002H10.5523C10.1561 7.2002 9.80945 7.54724 9.80945 7.94386C9.80945 8.34048 10.1561 8.68752 10.5523 8.68752H10.7999V24.5523C10.7999 24.701 10.899 24.8002 11.0475 24.8002H20.9523C21.1009 24.8002 21.1999 24.701 21.1999 24.5523V8.68752H21.4475C21.8437 8.68752 22.1904 8.34048 22.1904 7.94386C22.1904 7.54724 21.8437 7.2002 21.4475 7.2002ZM15.2571 22.5692C15.2571 22.7179 15.158 22.8171 15.0094 22.8171H12.5333C12.3847 22.8171 12.2856 22.7179 12.2856 22.5692V21.0819C12.2856 20.9332 12.3847 20.834 12.5333 20.834H15.0094C15.158 20.834 15.2571 20.9332 15.2571 21.0819V22.5692ZM15.2571 18.603C15.2571 18.7517 15.158 18.8509 15.0094 18.8509H12.5333C12.3847 18.8509 12.2856 18.7517 12.2856 18.603V17.1157C12.2856 16.967 12.3847 16.8678 12.5333 16.8678H15.0094C15.158 16.8678 15.2571 16.967 15.2571 17.1157V18.603ZM13.0285 11.9101C13.0285 10.274 14.3656 8.93541 15.9999 8.93541C17.6342 8.93541 18.9714 10.274 18.9714 11.9101C18.9714 13.5461 17.6342 14.8847 15.9999 14.8847C14.3656 14.8847 13.0285 13.5461 13.0285 11.9101ZM19.7142 22.5692C19.7142 22.7179 19.6152 22.8171 19.4666 22.8171H16.9904C16.8418 22.8171 16.7428 22.7179 16.7428 22.5692V21.0819C16.7428 20.9332 16.8418 20.834 16.9904 20.834H19.4666C19.6152 20.834 19.7142 20.9332 19.7142 21.0819V22.5692ZM19.7142 18.603C19.7142 18.7517 19.6152 18.8509 19.4666 18.8509H16.9904C16.8418 18.8509 16.7428 18.7517 16.7428 18.603V17.1157C16.7428 16.967 16.8418 16.8678 16.9904 16.8678H19.4666C19.6152 16.8678 19.7142 16.967 19.7142 17.1157V18.603Z" fill="white"/>
<path d="M5.59998 10.9185C5.59998 11.3151 5.94664 11.6621 6.34283 11.6621H9.56188V10.1748H6.34283C5.94664 10.1748 5.59998 10.5218 5.59998 10.9185ZM17.5847 11.2655H16.6438V10.3235C16.6438 10.274 16.5943 10.1748 16.4952 10.1748H15.4057C15.3562 10.1748 15.2571 10.2244 15.2571 10.3235V11.2655H14.3162C14.2666 11.2655 14.1676 11.3151 14.1676 11.4142V12.5049C14.1676 12.5545 14.2171 12.6537 14.3162 12.6537H15.2571V13.5956C15.2571 13.6452 15.3066 13.7444 15.4057 13.7444H16.4952C16.5447 13.7444 16.6438 13.6948 16.6438 13.5956V12.6537H17.5847C17.6343 12.6537 17.7333 12.6041 17.7333 12.5049V11.3647C17.7333 11.3151 17.6838 11.2655 17.5847 11.2655ZM9.31426 12.9016H6.34283C6.19426 12.9016 6.09521 13.0007 6.09521 13.1495V24.5523C6.09521 24.701 6.19426 24.8002 6.34283 24.8002H9.31426C9.46283 24.8002 9.56188 24.701 9.56188 24.5523V20.834H7.58093C7.43236 20.834 7.33331 20.7348 7.33331 20.5861V19.0987C7.33331 18.95 7.43236 18.8509 7.58093 18.8509H9.56188V16.8678H7.58093C7.43236 16.8678 7.33331 16.7686 7.33331 16.6199V15.1326C7.33331 14.9838 7.43236 14.8847 7.58093 14.8847H9.56188V13.1495C9.56188 13.0007 9.46283 12.9016 9.31426 12.9016ZM25.6571 10.1748H22.4381V11.6621H25.6571C26.0533 11.6621 26.4 11.3151 26.4 10.9185C26.4 10.5218 26.0533 10.1748 25.6571 10.1748ZM25.6571 12.9016H22.6857C22.5371 12.9016 22.4381 13.0007 22.4381 13.1495V14.8847H24.419C24.5676 14.8847 24.6666 14.9838 24.6666 15.1326V16.6199C24.6666 16.7686 24.5676 16.8678 24.419 16.8678H22.4381V18.8509H24.419C24.5676 18.8509 24.6666 18.95 24.6666 19.0987V20.5861C24.6666 20.7348 24.5676 20.834 24.419 20.834H22.4381V24.5523C22.4381 24.701 22.5371 24.8002 22.6857 24.8002H25.6571C25.8057 24.8002 25.9047 24.701 25.9047 24.5523V13.1495C25.9047 13.0007 25.8057 12.9016 25.6571 12.9016Z" fill="white"/>
</g>
<defs>
<clipPath id="clip0_0_587">
<rect width="20.8" height="17.6" fill="white" transform="translate(5.59998 7.2002)"/>
</clipPath>
</defs>
</svg>
