<svg width="32" height="32" viewBox="0 0 32 32" fill="none" xmlns="http://www.w3.org/2000/svg">
<path d="M32 27.9349C32 30.1658 30.1905 32 27.9349 32H4.06507C1.83424 32 0 30.1905 0 27.9349V4.06507C0 1.83424 1.80945 0 4.06507 0H27.9349C30.1658 0 32 1.80945 32 4.06507V27.9349Z" fill="#2DD4BF"/>
<g style="mix-blend-mode:color-burn">
<path d="M22.5307 23.8331L22.3077 23.4861C23.7231 22.642 24.2697 20.8635 23.5728 19.3702L22 15.9998V9.90406H9.92905L9.2 6.7998L0 14.2275V27.9347C0 30.1656 1.80945 31.9998 4.06506 31.9998H9.6L22 25.9998L22.5307 23.8331Z" fill="#C9C9C9"/>
</g>
<g clip-path="url(#clip0_0_213)">
<path d="M21.2917 6.7626L20.1223 7.38275C19.9628 7.48611 19.7502 7.48611 19.5907 7.38275L17.8897 6.45252C17.7303 6.34916 17.5177 6.34916 17.3582 6.45252L15.7103 7.38275C15.5509 7.48611 15.3383 7.48611 15.1788 7.38275L13.4778 6.45252C13.3183 6.40084 13.1057 6.40084 12.9462 6.45252L11.2452 7.38275C11.0858 7.43443 10.9263 7.43443 10.7668 7.38275L9.59739 6.7626C9.2253 6.55588 8.80005 6.81428 8.80005 7.17603V23.7135C8.80005 24.1269 9.2253 24.3337 9.59739 24.1786L10.7668 23.5585C10.9263 23.4551 11.1389 23.4551 11.2984 23.5585L12.9994 24.4887C13.1589 24.5921 13.3715 24.5921 13.5309 24.4887L14.4346 24.0236C14.1157 23.3001 13.9562 22.5249 13.9562 21.7497C13.9562 18.4939 16.7203 15.8065 20.0692 15.8065C20.8133 15.8065 21.5044 15.9099 22.1422 16.1683V7.17603C22.0891 6.81428 21.6638 6.55588 21.2917 6.7626ZM12.2552 19.3207H11.4579C11.0858 19.3207 10.82 19.0107 10.82 18.7006C10.82 18.3905 11.1389 18.0804 11.4579 18.0804H12.2552C12.6273 18.0804 12.8931 18.3905 12.8931 18.7006C12.8931 19.0107 12.6273 19.3207 12.2552 19.3207ZM13.7967 16.7368H11.4579C11.0858 16.7368 10.82 16.4267 10.82 16.1166C10.82 15.8065 11.1389 15.4964 11.4579 15.4964H13.7967C14.1688 15.4964 14.4346 15.8065 14.4346 16.1166C14.4346 16.4267 14.1688 16.7368 13.7967 16.7368ZM19.325 14.1528H11.4579C11.0858 14.1528 10.82 13.8427 10.82 13.5326C10.82 13.2225 11.1389 12.9125 11.4579 12.9125H19.325C19.6971 12.9125 19.9628 13.2225 19.9628 13.5326C19.9628 13.8427 19.6439 14.1528 19.325 14.1528ZM19.325 11.5688H11.4579C11.0858 11.5688 10.82 11.2587 10.82 10.9486C10.82 10.6386 11.0858 10.2768 11.4579 10.2768H19.325C19.6439 10.2768 19.9628 10.5352 19.9628 10.897C19.9628 11.2587 19.6439 11.5688 19.325 11.5688Z" fill="white"/>
<path d="M20.016 17.0986C17.3582 17.0986 15.2319 19.1658 15.2319 21.7498C15.2319 24.3338 17.3582 26.401 20.016 26.401C22.6738 26.401 24.8 24.3338 24.8 21.7498C24.8 19.1658 22.6738 17.0986 20.016 17.0986ZM22.408 22.4216C22.408 22.525 22.3017 22.5767 22.2485 22.5767H20.9728V23.817C20.9728 23.9203 20.8665 23.972 20.8133 23.972H19.325C19.2186 23.972 19.1655 23.8687 19.1655 23.817V22.5767H17.8366C17.7303 22.5767 17.6771 22.4733 17.6771 22.4216V20.9746C17.6771 20.8712 17.7834 20.8196 17.8366 20.8196H19.1123V19.5793C19.1123 19.4759 19.2186 19.4242 19.2718 19.4242H20.7602C20.8665 19.4242 20.9196 19.5276 20.9196 19.5793V20.8196H22.1954C22.3017 20.8196 22.3549 20.9229 22.3549 20.9746V22.4216H22.408Z" fill="white"/>
</g>
<defs>
<clipPath id="clip0_0_213">
<rect width="16" height="20" fill="white" transform="translate(8.80005 6.40039)"/>
</clipPath>
</defs>
</svg>
