<svg width="32" height="32" viewBox="0 0 32 32" fill="none" xmlns="http://www.w3.org/2000/svg">
<path d="M32 27.9349C32 30.1658 30.1905 32 27.9349 32H4.06507C1.83424 32 0 30.1905 0 27.9349V4.06507C0 1.83424 1.80945 0 4.06507 0H27.9349C30.1658 0 32 1.80945 32 4.06507V27.9349Z" fill="#22D3EE"/>
<g style="mix-blend-mode:color-burn">
<path d="M22.5308 23.8333L22.3077 23.4863L23.6 24V10.8L10.4 10.4L9.92905 9.90425L8 8L0 14.8V27.9349C0 30.1658 1.80945 32 4.06507 32L12 32L22.8 24.4L22.5308 23.8333Z" fill="#C9C9C9"/>
</g>
<g clip-path="url(#clip0_0_247)">
<path d="M22.6164 8H20.6272C20.0802 8 19.6326 8.47003 19.6326 9.04451C19.6326 9.61899 19.1851 10.089 18.638 10.089C18.091 10.089 17.6434 9.61899 17.6434 9.04451C17.6434 8.47003 17.1959 8 16.6488 8H14.1624C13.6153 8 13.1678 8.47003 13.1678 9.04451C13.1678 9.61899 12.7202 10.089 12.1732 10.089C11.6261 10.089 11.1786 9.61899 11.1786 9.04451C11.1786 8.47003 10.731 8 10.184 8H8.19479C7.64776 8 7.2002 8.47003 7.2002 9.04451V22.1009C7.2002 22.6754 7.64776 23.1454 8.19479 23.1454H15.7537C15.5051 22.4665 15.3559 21.6831 15.3559 20.8997C15.3061 17.505 17.9418 14.7893 21.1245 14.7893C22.0197 14.7893 22.8651 14.9982 23.611 15.3638V9.04451C23.611 8.47003 23.1634 8 22.6164 8ZM10.184 20.6386C9.63695 20.6386 9.18938 20.1685 9.18938 19.5941C9.18938 19.0196 9.63695 18.5496 10.184 18.5496C10.731 18.5496 11.1786 19.0196 11.1786 19.5941C11.1786 20.1685 10.731 20.6386 10.184 20.6386ZM10.184 17.505C9.63695 17.505 9.18938 17.035 9.18938 16.4605C9.18938 15.8861 9.63695 15.416 10.184 15.416C10.731 15.416 11.1786 15.8861 11.1786 16.4605C11.1786 17.035 10.731 17.505 10.184 17.505ZM13.1678 20.6386C12.6207 20.6386 12.1732 20.1685 12.1732 19.5941C12.1732 19.0196 12.6207 18.5496 13.1678 18.5496C13.7148 18.5496 14.1624 19.0196 14.1624 19.5941C14.1624 20.1685 13.7148 20.6386 13.1678 20.6386ZM13.1678 17.505C12.6207 17.505 12.1732 17.035 12.1732 16.4605C12.1732 15.8861 12.6207 15.416 13.1678 15.416C13.7148 15.416 14.1624 15.8861 14.1624 16.4605C14.1624 17.035 13.7148 17.505 13.1678 17.505ZM13.1678 14.3715C12.6207 14.3715 12.1732 13.9015 12.1732 13.327C12.1732 12.7525 12.6207 12.2825 13.1678 12.2825C13.7148 12.2825 14.1624 12.7525 14.1624 13.327C14.1624 13.9015 13.7148 14.3715 13.1678 14.3715ZM16.1515 14.3715C15.6045 14.3715 15.157 13.9015 15.157 13.327C15.157 12.7525 15.6045 12.2825 16.1515 12.2825C16.6986 12.2825 17.1461 12.7525 17.1461 13.327C17.1461 13.9015 16.6986 14.3715 16.1515 14.3715Z" fill="white"/>
<path d="M21.1241 16.1994C18.6376 16.1994 16.6484 18.2884 16.6484 20.8997C16.6484 23.511 18.6376 25.6 21.1241 25.6C23.6106 25.6 25.5998 23.511 25.5998 20.8997C25.5998 18.2884 23.6106 16.1994 21.1241 16.1994ZM21.7209 21.1608C21.7209 21.5264 21.4225 21.7875 21.1241 21.7875H18.6376C18.2895 21.7875 18.0409 21.4742 18.0409 21.1608C18.0409 20.7952 18.3392 20.5341 18.6376 20.5341H20.5274V18.0273C20.5274 17.6617 20.8257 17.4006 21.1241 17.4006C21.4225 17.4006 21.7209 17.7139 21.7209 18.0273V21.1608Z" fill="white"/>
</g>
<defs>
<clipPath id="clip0_0_247">
<rect width="18.4" height="17.6" fill="white" transform="translate(7.2002 8)"/>
</clipPath>
</defs>
</svg>
