<svg width="40" height="40" viewBox="0 0 40 40" fill="none" xmlns="http://www.w3.org/2000/svg">
<path d="M40 34.9187C40 37.7072 37.7382 40 34.9187 40H5.08133C2.29279 40 0 37.7382 0 34.9187V5.08134C0 2.2928 2.26181 0 5.08133 0H34.9187C37.7072 0 40 2.26182 40 5.08134V34.9187Z" fill="#E879F9"/>
<g style="mix-blend-mode:color-burn">
<path d="M31.0767 29.9616L32.2541 23.9198L30.8598 18.7145L32.6569 15.3683L32.0372 12.9825L28.4741 12.4248L20.976 19.3032L22.5252 10.163L21.6576 7.06464L20.2324 5.94922L17.3199 6.04217L10.5035 6.13512L0 16.3598V34.8571C0 37.6456 2.26181 39.9384 5.08133 39.9384H22.3703L28.598 33.7726L31.0767 29.9616Z" fill="#C9C9C9"/>
</g>
<path d="M31.0147 17.8467C31.7273 19.7677 32.5639 22.3393 32.5639 25.0659C32.5639 26.3982 32.378 27.7925 31.8513 29.1557C31.4795 30.1472 30.8598 30.9838 30.1162 31.6654C29.5275 32.9048 28.505 33.9892 27.2347 34.7948C25.7475 35.7243 23.9504 36.313 22.1844 36.313C21.2858 36.313 20.4183 36.1581 19.5817 35.8482C17.2579 34.9497 16.0496 33.4005 15.4609 31.9133C14.8722 30.4261 14.9032 29.0008 14.8722 28.2262L16.0806 28.1643C15.9876 28.9698 15.7707 30.2712 16.2974 31.5725C16.8242 32.8738 17.8157 34.1751 19.8916 34.9807C20.6042 35.2595 21.3788 35.3835 22.1534 35.3835C23.7335 35.3835 25.3757 34.8567 26.708 34.0202C27.1727 33.7104 27.6065 33.4005 27.9783 33.0287C27.0178 33.4315 25.9954 33.6794 25.0039 33.6794C23.9194 33.6794 22.866 33.4315 21.9675 32.8428C21.0689 32.2541 20.3563 31.3556 19.9535 30.1472C19.7057 29.4036 19.5817 28.691 19.5817 28.0093C19.5817 26.3672 20.2634 25.0349 21.3478 24.1054C22.4012 23.1759 23.8575 22.7111 25.3447 22.7111C25.7785 22.7111 26.2432 22.7421 26.708 22.8351C29.0008 23.2998 30.7668 25.5926 30.7668 28.5361C30.7668 28.8459 30.7359 29.1557 30.7049 29.4966C30.7978 29.3107 30.9218 29.0938 30.9837 28.8769C31.4485 27.6375 31.6344 26.3672 31.6344 25.1279C31.6344 22.5252 30.8288 20.0155 30.1162 18.0946L31.0147 17.8467ZM21.9675 24.7561C21.0999 25.5306 20.5422 26.5841 20.5422 27.9474C20.5422 28.5051 20.6352 29.1248 20.852 29.8064C21.1929 30.8289 21.7816 31.5415 22.4942 32.0372C23.2068 32.502 24.1053 32.7499 25.0349 32.7499C26.5531 32.7499 28.1642 32.1612 29.3726 31.1077C29.4345 30.9838 29.4655 30.8598 29.5275 30.7049C29.7754 29.9303 29.8683 29.1867 29.8683 28.5051C29.8683 25.9024 28.3501 24.0434 26.5531 23.7026C26.1503 23.6406 25.7785 23.5787 25.3757 23.5787C24.0434 23.5787 22.835 24.0124 21.9675 24.7561Z" fill="white"/>
<path d="M29.6824 12.0225C27.8853 12.0225 26.4291 13.4787 26.4291 15.2758C26.4291 17.0728 27.8853 18.529 29.6824 18.529C31.4794 18.529 32.9357 17.0728 32.9357 15.2758C32.9047 13.4787 31.4484 12.0225 29.6824 12.0225ZM29.7134 17.7235C28.3501 17.7235 27.2347 16.6081 27.2347 15.2448C27.2347 13.8815 28.3501 12.7661 29.7134 12.7661C31.0766 12.7661 32.1921 13.8815 32.1921 15.2448C32.1921 16.6081 31.0766 17.7235 29.7134 17.7235Z" fill="white"/>
<path d="M29.7443 13.2305C28.6599 13.2305 27.7924 14.098 27.7924 15.1824C27.7924 16.2669 28.6599 17.1344 29.7443 17.1344C30.8288 17.1344 31.6963 16.2669 31.6963 15.1824C31.6963 14.098 30.8288 13.2305 29.7443 13.2305ZM29.7443 16.4528C29.0317 16.4528 28.443 15.8641 28.443 15.1515C28.443 14.4388 29.0317 13.8501 29.7443 13.8501C30.457 13.8501 31.0457 14.4388 31.0457 15.1515C31.0457 15.8951 30.457 16.4528 29.7443 16.4528Z" fill="white"/>
<path d="M30.8288 15.1825C30.8288 15.7712 30.333 16.2669 29.7443 16.2669C29.1557 16.2669 28.6599 15.7712 28.6599 15.1825C28.6599 14.5938 29.1557 14.0981 29.7443 14.0981C30.333 14.0671 30.8288 14.5628 30.8288 15.1825Z" fill="white"/>
<path d="M10.6894 18.0637C10.5655 17.7538 10.0697 17.8158 9.63595 18.0017C9.29513 18.1566 9.48102 18.5284 9.54299 18.8383C9.60496 19.0861 10.3176 21.8127 10.9682 23.207C11.526 24.4463 12.7963 26.4603 15.6778 26.3053C17.6607 26.2124 18.7142 25.4378 19.6747 23.238C20.6352 21.0071 21.3478 18.5284 21.3478 18.3115C21.3788 18.0947 21.2858 17.9397 20.976 17.8778C20.6971 17.8158 20.4183 17.7538 20.3253 17.9088C20.2324 18.0637 19.055 22.3394 18.4043 23.4239C17.7537 24.4773 17.103 25.2519 15.6158 25.2209C14.1596 25.1899 12.5794 24.7562 11.6189 21.4099C10.8443 18.6833 10.6894 18.0637 10.6894 18.0637Z" fill="white"/>
<path d="M13.5089 6.538C13.4469 6.50702 13.4159 6.38308 13.4159 6.16619C13.4159 5.94931 13.4469 5.67045 13.5708 5.60849C13.6947 5.5775 14.1595 5.3916 14.5313 5.3916C14.9031 5.42259 15.2749 5.5775 15.3059 6.04226C15.3369 6.44505 15.182 6.84784 14.5313 6.84784C13.9116 6.87882 13.5089 6.538 13.5089 6.538Z" fill="white"/>
<path d="M10.1626 17.4445C9.69789 15.8024 8.98526 13.0448 8.98526 10.6281C8.98526 10.4732 8.98526 10.3183 8.98526 10.1943C9.1092 7.40581 10.3176 6.44531 11.1231 6.25941C11.464 6.19744 11.8358 6.16646 12.2076 6.16646C12.8582 6.16646 13.5399 6.22843 14.0356 6.29039L14.0666 5.8876C13.6018 5.85662 12.8892 5.76367 12.2076 5.76367C11.8048 5.76367 11.371 5.79466 10.9992 5.85662C9.91478 6.10449 8.61346 7.28187 8.52051 10.1634C8.52051 10.3183 8.52051 10.4732 8.52051 10.6281C8.52051 13.1378 9.1092 15.6165 9.66691 17.5375L10.1626 17.4445Z" fill="white"/>
<path d="M17.9086 6.47589C17.9706 6.44491 18.0016 6.32097 18.0016 6.10409C17.9706 5.8872 17.9396 5.60835 17.8467 5.54638C17.7227 5.5154 17.258 5.3295 16.8552 5.39146C16.5144 5.42245 16.1116 5.60835 16.1116 6.07311C16.1116 6.47589 16.2665 6.87868 16.9172 6.8477C17.5058 6.8477 17.9086 6.47589 17.9086 6.47589Z" fill="white"/>
<path d="M22.5872 10.2556C22.5562 7.37412 21.2859 6.16575 20.2014 5.91788C19.8296 5.82493 19.4268 5.79395 18.9931 5.79395C18.3114 5.79395 17.5988 5.85591 17.134 5.8869L17.165 6.28969C17.6608 6.2587 18.3114 6.19673 18.9931 6.19673C19.3649 6.19673 19.7677 6.22772 20.0775 6.32067C20.8831 6.50657 22.0914 7.49805 22.1224 10.2866C22.1224 10.4415 22.1224 10.5964 22.1224 10.7204C22.0604 13.1681 21.2549 15.8637 20.7281 17.5058C20.8211 17.5368 21.1929 17.5988 21.2859 17.6297C21.7816 15.9566 22.4942 13.1991 22.5562 10.7204C22.5872 10.5654 22.5872 10.4105 22.5872 10.2556Z" fill="white"/>
<path d="M13.9736 26.6152C14.0046 26.7082 14.9031 28.908 14.9031 28.908H16.0186C16.0186 28.908 16.8551 26.6772 16.8861 26.6152C16.5763 26.7082 16.0495 26.8011 15.7087 26.8321C14.9651 26.8321 14.5623 26.7702 13.9736 26.6152Z" fill="white"/>
</svg>
