<svg width="16" height="16" viewBox="0 0 16 16" fill="none" xmlns="http://www.w3.org/2000/svg">
<path d="M7.99998 8.66634C8.36817 8.66634 8.66665 8.36786 8.66665 7.99967C8.66665 7.63148 8.36817 7.33301 7.99998 7.33301C7.63179 7.33301 7.33331 7.63148 7.33331 7.99967C7.33331 8.36786 7.63179 8.66634 7.99998 8.66634Z" stroke="#6B7280" stroke-width="1.5" stroke-linecap="round" stroke-linejoin="round"/>
<path d="M7.99998 4.00033C8.36817 4.00033 8.66665 3.70185 8.66665 3.33366C8.66665 2.96547 8.36817 2.66699 7.99998 2.66699C7.63179 2.66699 7.33331 2.96547 7.33331 3.33366C7.33331 3.70185 7.63179 4.00033 7.99998 4.00033Z" stroke="#6B7280" stroke-width="1.5" stroke-linecap="round" stroke-linejoin="round"/>
<path d="M7.99998 13.3333C8.36817 13.3333 8.66665 13.0349 8.66665 12.6667C8.66665 12.2985 8.36817 12 7.99998 12C7.63179 12 7.33331 12.2985 7.33331 12.6667C7.33331 13.0349 7.63179 13.3333 7.99998 13.3333Z" stroke="#6B7280" stroke-width="1.5" stroke-linecap="round" stroke-linejoin="round"/>
</svg>
