<svg width="9" height="9" viewBox="0 0 9 9" fill="none" xmlns="http://www.w3.org/2000/svg">
<path d="M4.5 8.25C2.42888 8.25 0.75 6.57112 0.75 4.5C0.75 2.42888 2.42888 0.75 4.5 0.75C6.57112 0.75 8.25 2.42888 8.25 4.5C8.25 6.57112 6.57112 8.25 4.5 8.25ZM4.5 7.5C5.29565 7.5 6.05871 7.18393 6.62132 6.62132C7.18393 6.05871 7.5 5.29565 7.5 4.5C7.5 3.70435 7.18393 2.94129 6.62132 2.37868C6.05871 1.81607 5.29565 1.5 4.5 1.5C3.70435 1.5 2.94129 1.81607 2.37868 2.37868C1.81607 2.94129 1.5 3.70435 1.5 4.5C1.5 5.29565 1.81607 6.05871 2.37868 6.62132C2.94129 7.18393 3.70435 7.5 4.5 7.5ZM4.125 5.625H4.875V6.375H4.125V5.625ZM4.875 5.00812V5.25H4.125V4.6875C4.125 4.58804 4.16451 4.49266 4.23483 4.42233C4.30516 4.35201 4.40054 4.3125 4.5 4.3125C4.60653 4.31249 4.71087 4.28224 4.80087 4.22525C4.89088 4.16826 4.96285 4.08689 5.00841 3.99059C5.05398 3.8943 5.07126 3.78705 5.05826 3.68132C5.04525 3.57558 5.00248 3.47572 4.93494 3.39334C4.86739 3.31096 4.77784 3.24946 4.67671 3.21599C4.57557 3.18252 4.46701 3.17845 4.36366 3.20426C4.26031 3.23008 4.16641 3.28471 4.09289 3.36181C4.01937 3.4389 3.96925 3.53529 3.94838 3.63975L3.21263 3.49237C3.25824 3.26441 3.36357 3.05264 3.51785 2.87872C3.67212 2.7048 3.86982 2.57497 4.09072 2.50249C4.31162 2.43002 4.54781 2.41751 4.77513 2.46623C5.00245 2.51495 5.21276 2.62317 5.38456 2.77981C5.55635 2.93645 5.68347 3.1359 5.75292 3.35777C5.82236 3.57965 5.83165 3.81598 5.77982 4.04262C5.728 4.26925 5.61692 4.47806 5.45795 4.6477C5.29897 4.81734 5.0978 4.94172 4.875 5.00812Z" fill="#A855F7"/>
</svg>
