<svg width="30" height="30" viewBox="0 0 30 30" fill="none" xmlns="http://www.w3.org/2000/svg">
<path d="M21.4505 0.508492H21.416C19.0732 0.513229 16.8008 1.39907 14.9859 3.01284C12.9416 1.05642 11.0022 4.26118e-05 9.20679 4.26118e-05C6.74244 -0.00785256 4.38159 1.08168 2.67169 3.01284C1.45227 4.41818 0.607819 6.1567 0.226842 8.04523C-0.154134 9.93375 -0.0536405 11.8981 0.516324 13.7298C0.516324 13.7298 0.516324 13.8071 0.550822 13.8071H5.11054L7.26441 10.128L7.26591 10.1311C7.46989 9.76164 7.84037 9.53741 8.23485 9.54373C8.60382 9.57057 8.9383 9.79006 9.13329 10.1311L12.1856 16.5073L15.4524 10.6396C15.6249 10.3348 15.9174 10.1343 16.2429 10.0917C16.5698 10.0553 16.8938 10.1706 17.1398 10.4043L20.1201 13.534C20.5401 13.9792 20.5566 14.7103 20.1576 15.1761C19.9596 15.4083 19.6836 15.5441 19.3927 15.552C19.1017 15.5583 18.8197 15.4367 18.6127 15.2156L16.6028 13.1029L13.0106 19.479C12.8306 19.8359 12.4871 20.0601 12.1136 20.0664H12.0776C11.6816 20.0348 11.3277 19.7822 11.1447 19.4016L8.05636 12.986L6.58495 15.5283C6.39446 15.8804 6.05998 16.1125 5.688 16.1551H1.55876C1.88124 16.5452 2.27572 17.1326 2.70769 17.6031L14.233 29.6859C14.434 29.9006 14.7069 30.0143 14.9874 29.9985C15.2724 29.9938 15.5424 29.8691 15.7434 29.6464L27.3047 17.4831C29.0326 15.5614 30 12.9781 30 10.2875C30 7.59678 29.0326 5.01348 27.3047 3.09021C25.7583 1.39749 23.6449 0.464279 21.4505 0.510071V0.508492Z" fill="#7C3AED"/>
</svg>
