<svg width="16" height="16" viewBox="0 0 16 16" fill="none" xmlns="http://www.w3.org/2000/svg">
<path d="M14.0019 8.52667C13.897 9.66147 13.4711 10.7429 12.7741 11.6445C12.077 12.5461 11.1375 13.2305 10.0657 13.6177C8.99383 14.0049 7.83388 14.0787 6.72155 13.8307C5.60923 13.5827 4.59055 13.023 3.7847 12.2172C2.97886 11.4113 2.41918 10.3927 2.17116 9.28033C1.92314 8.16801 1.99703 7.00806 2.38419 5.9362C2.77136 4.86434 3.45577 3.92491 4.35736 3.22784C5.25895 2.53076 6.34042 2.10487 7.47522 2C6.81083 2.89884 6.49112 4.0063 6.57424 5.12094C6.65736 6.23559 7.1378 7.28337 7.92816 8.07373C8.71852 8.86409 9.7663 9.34452 10.8809 9.42765C11.9956 9.51077 13.103 9.19106 14.0019 8.52667V8.52667Z" stroke="#8B5CF6" stroke-linecap="round" stroke-linejoin="round"/>
</svg>
