<svg width="32" height="32" viewBox="0 0 32 32" fill="none" xmlns="http://www.w3.org/2000/svg">
<path d="M32 27.8917C32 30.1191 30.1906 31.9505 27.9349 31.9505H4.06506C1.83424 31.9505 0 30.1439 0 27.8917V4.05878C0 1.8314 1.80945 0 4.06506 0H27.9349C30.1658 0 32 1.80665 32 4.05878V27.8917Z" fill="#60A5FA"/>
<g style="mix-blend-mode:color-burn">
<path d="M22.5793 24.531C23.3831 23.3253 23.1315 21.7051 22 20.7999L21.2 19.1999V15.9999L19.2 11.9999L20 9.1999L19.2 6.3999L15.7645 8.6372L15.2936 8.43921L14 6.39994L10.8 6.7999L0 17.3487V27.9411C0 30.1685 1.80945 31.9999 4.06506 31.9999H14.4L22.4 24.7999L22.5793 24.531Z" fill="#C9C9C9"/>
</g>
<g clip-path="url(#clip0_0_508)">
<path d="M20.077 9.2159V6.9119C20.077 6.6047 19.8755 6.3999 19.5733 6.3999H11.2118C10.9096 6.3999 10.7081 6.6047 10.7081 6.9119V9.2159C10.7081 9.3695 10.8592 9.4719 11.0104 9.4719H19.8252C19.9259 9.4719 20.077 9.3695 20.077 9.2159ZM20.6815 20.4799C19.2711 20.4799 18.1629 21.6063 18.1629 23.0399C18.1629 23.5007 18.3141 23.9615 18.5155 24.3199L21.9407 20.8383C21.5881 20.6335 21.1348 20.4799 20.6815 20.4799ZM22.8474 21.7599L19.4222 25.2415C19.7748 25.4463 20.2281 25.5999 20.6815 25.5999C22.0918 25.5999 23.2 24.4735 23.2 23.0399C23.2 22.5791 23.0489 22.1183 22.8474 21.7599Z" fill="white"/>
<path d="M19.2207 13.312H16.5511C16.1985 13.312 15.9466 13.0048 15.9466 12.6976C15.9466 12.3904 16.2489 12.0832 16.5511 12.0832H19.1703V11.008C19.1703 10.8544 19.0696 10.752 18.9185 10.752H11.8666C11.7155 10.752 11.6148 10.8544 11.6148 11.008V13.312C10.5066 13.312 9.59998 14.2336 9.59998 15.36V23.552C9.59998 24.6784 10.5066 25.6 11.6148 25.6H17.8607C17.2563 24.9344 16.9037 24.0128 16.9037 23.04C16.9037 20.9408 18.6163 19.2 20.6815 19.2C20.8326 19.2 21.034 19.2 21.1852 19.2512V15.36C21.1852 14.2336 20.3289 13.3632 19.2207 13.312ZM12.4711 22.272C12.4711 22.6304 12.1689 22.8864 11.8666 22.8864C11.5644 22.8864 11.2118 22.6304 11.2118 22.272V19.968C11.2118 19.6096 11.514 19.3536 11.8666 19.3536C12.2192 19.3536 12.4711 19.6608 12.4711 19.968V22.272ZM12.4711 17.408C12.4711 17.7664 12.1689 18.0224 11.8666 18.0224C11.5644 18.0224 11.2118 17.7152 11.2118 17.408V16.64C11.2118 16.2816 11.514 16.0256 11.8666 16.0256C12.2192 16.0256 12.4711 16.3328 12.4711 16.64V17.408Z" fill="white"/>
</g>
<defs>
<clipPath id="clip0_0_508">
<rect width="13.6" height="19.2" fill="white" transform="translate(9.59998 6.3999)"/>
</clipPath>
</defs>
</svg>
