<svg width="22" height="22" viewBox="0 0 22 22" fill="none" xmlns="http://www.w3.org/2000/svg">
<path d="M10.0833 15.583H11.9167V10.083H10.0833V15.583ZM11 8.24967C11.2597 8.24967 11.4776 8.16167 11.6536 7.98567C11.8296 7.80967 11.9173 7.59212 11.9167 7.33301C11.9167 7.07329 11.8287 6.85542 11.6527 6.67942C11.4767 6.50342 11.2591 6.41573 11 6.41634C10.7403 6.41634 10.5224 6.50434 10.3464 6.68034C10.1704 6.85634 10.0827 7.0739 10.0833 7.33301C10.0833 7.59273 10.1713 7.81059 10.3473 7.98659C10.5233 8.16259 10.7409 8.25029 11 8.24967ZM11 20.1663C9.73194 20.1663 8.54027 19.9256 7.425 19.444C6.30972 18.9625 5.33958 18.3095 4.51458 17.4851C3.68958 16.6601 3.03661 15.69 2.55566 14.5747C2.07472 13.4594 1.83394 12.2677 1.83333 10.9997C1.83333 9.73162 2.07411 8.53995 2.55566 7.42467C3.03722 6.3094 3.69019 5.33926 4.51458 4.51426C5.33958 3.68926 6.30972 3.03629 7.425 2.55534C8.54027 2.0744 9.73194 1.83362 11 1.83301C12.2681 1.83301 13.4597 2.07379 14.575 2.55534C15.6903 3.0369 16.6604 3.68987 17.4854 4.51426C18.3104 5.33926 18.9637 6.3094 19.4452 7.42467C19.9268 8.53995 20.1673 9.73162 20.1667 10.9997C20.1667 12.2677 19.9259 13.4594 19.4443 14.5747C18.9628 15.69 18.3098 16.6601 17.4854 17.4851C16.6604 18.3101 15.6903 18.9634 14.575 19.4449C13.4597 19.9265 12.2681 20.167 11 20.1663ZM11 18.333C13.0472 18.333 14.7812 17.6226 16.2021 16.2018C17.6229 14.7809 18.3333 13.0469 18.3333 10.9997C18.3333 8.95245 17.6229 7.21842 16.2021 5.79759C14.7812 4.37676 13.0472 3.66634 11 3.66634C8.95277 3.66634 7.21874 4.37676 5.79791 5.79759C4.37708 7.21842 3.66666 8.95245 3.66666 10.9997C3.66666 13.0469 4.37708 14.7809 5.79791 16.2018C7.21874 17.6226 8.95277 18.333 11 18.333Z" fill="#0891B2"/>
</svg>
