<svg width="64" height="64" viewBox="0 0 64 64" fill="none" xmlns="http://www.w3.org/2000/svg">
<g filter="url(#filter0_dd_3775_34189)">
<g clip-path="url(#clip0_3775_34189)">
<path d="M52 36.9187C52 39.7072 49.7382 42 46.9187 42H17.0813C14.2928 42 12 39.7382 12 36.9187V7.08134C12 4.2928 14.2618 2 17.0813 2H46.9187C49.7072 2 52 4.26182 52 7.08134V36.9187Z" fill="#2DD4BF"/>
<g style="mix-blend-mode:color-burn">
<path d="M40.1634 31.7916L39.8846 31.3579C41.6538 30.3028 42.3372 28.0797 41.4661 26.213L39.5 22V14.3803H24.4113L23.5 10.5L12 19.7847V36.9187C12 39.7072 14.2618 42 17.0813 42H24L39.5 34.5L40.1634 31.7916Z" fill="#C9C9C9"/>
</g>
<g clip-path="url(#clip1_3775_34189)">
<path d="M38.6127 10.4523L37.1509 11.2275C36.9515 11.3567 36.6858 11.3567 36.4864 11.2275L34.3602 10.0647C34.1608 9.93547 33.8951 9.93547 33.6957 10.0647L31.6359 11.2275C31.4366 11.3567 31.1708 11.3567 30.9715 11.2275L28.8452 10.0647C28.6459 10.0001 28.3801 10.0001 28.1808 10.0647L26.0545 11.2275C25.8552 11.2921 25.6559 11.2921 25.4565 11.2275L23.9947 10.4523C23.5296 10.1939 22.998 10.5169 22.998 10.9691V31.6409C22.998 32.1577 23.5296 32.4161 23.9947 32.2223L25.4565 31.4471C25.6559 31.3179 25.9216 31.3179 26.121 31.4471L28.2472 32.6099C28.4466 32.7391 28.7123 32.7391 28.9117 32.6099L30.0412 32.0285C29.6426 31.1241 29.4432 30.1551 29.4432 29.1861C29.4432 25.1164 32.8984 21.7572 37.0844 21.7572C38.0147 21.7572 38.8784 21.8864 39.6758 22.2094V10.9691C39.6093 10.5169 39.0778 10.1939 38.6127 10.4523ZM27.317 26.1499H26.3203C25.8552 26.1499 25.523 25.7623 25.523 25.3748C25.523 24.9872 25.9216 24.5996 26.3203 24.5996H27.317C27.7821 24.5996 28.1143 24.9872 28.1143 25.3748C28.1143 25.7623 27.7821 26.1499 27.317 26.1499ZM29.2439 22.92H26.3203C25.8552 22.92 25.523 22.5324 25.523 22.1448C25.523 21.7572 25.9216 21.3696 26.3203 21.3696H29.2439C29.709 21.3696 30.0412 21.7572 30.0412 22.1448C30.0412 22.5324 29.709 22.92 29.2439 22.92ZM36.1542 19.69H26.3203C25.8552 19.69 25.523 19.3024 25.523 18.9148C25.523 18.5272 25.9216 18.1396 26.3203 18.1396H36.1542C36.6193 18.1396 36.9515 18.5272 36.9515 18.9148C36.9515 19.3024 36.5529 19.69 36.1542 19.69ZM36.1542 16.46H26.3203C25.8552 16.46 25.523 16.0724 25.523 15.6848C25.523 15.2972 25.8552 14.845 26.3203 14.845H36.1542C36.5529 14.845 36.9515 15.168 36.9515 15.6202C36.9515 16.0724 36.5529 16.46 36.1542 16.46Z" fill="white"/>
<path d="M37.0172 23.3721C33.6949 23.3721 31.0371 25.956 31.0371 29.186C31.0371 32.416 33.6949 35 37.0172 35C40.3394 35 42.9972 32.416 42.9972 29.186C42.9972 25.956 40.3394 23.3721 37.0172 23.3721ZM40.0072 30.0258C40.0072 30.155 39.8743 30.2196 39.8079 30.2196H38.2132V31.77C38.2132 31.8992 38.0803 31.9638 38.0139 31.9638H36.1534C36.0205 31.9638 35.9541 31.8346 35.9541 31.77V30.2196H34.2929C34.16 30.2196 34.0936 30.0904 34.0936 30.0258V28.217C34.0936 28.0878 34.2265 28.0232 34.2929 28.0232H35.8876V26.4728C35.8876 26.3436 36.0205 26.279 36.0869 26.279H37.9474C38.0803 26.279 38.1467 26.4082 38.1467 26.4728V28.0232H39.7414C39.8743 28.0232 39.9408 28.1524 39.9408 28.217V30.0258H40.0072Z" fill="white"/>
</g>
</g>
</g>
<defs>
<filter id="filter0_dd_3775_34189" x="0" y="0" width="64" height="64" filterUnits="userSpaceOnUse" color-interpolation-filters="sRGB">
<feFlood flood-opacity="0" result="BackgroundImageFix"/>
<feColorMatrix in="SourceAlpha" type="matrix" values="0 0 0 0 0 0 0 0 0 0 0 0 0 0 0 0 0 0 127 0" result="hardAlpha"/>
<feMorphology radius="3" operator="erode" in="SourceAlpha" result="effect1_dropShadow_3775_34189"/>
<feOffset dy="10"/>
<feGaussianBlur stdDeviation="7.5"/>
<feColorMatrix type="matrix" values="0 0 0 0 0 0 0 0 0 0 0 0 0 0 0 0 0 0 0.1 0"/>
<feBlend mode="normal" in2="BackgroundImageFix" result="effect1_dropShadow_3775_34189"/>
<feColorMatrix in="SourceAlpha" type="matrix" values="0 0 0 0 0 0 0 0 0 0 0 0 0 0 0 0 0 0 127 0" result="hardAlpha"/>
<feMorphology radius="2" operator="erode" in="SourceAlpha" result="effect2_dropShadow_3775_34189"/>
<feOffset dy="4"/>
<feGaussianBlur stdDeviation="3"/>
<feColorMatrix type="matrix" values="0 0 0 0 0 0 0 0 0 0 0 0 0 0 0 0 0 0 0.06 0"/>
<feBlend mode="normal" in2="effect1_dropShadow_3775_34189" result="effect2_dropShadow_3775_34189"/>
<feBlend mode="normal" in="SourceGraphic" in2="effect2_dropShadow_3775_34189" result="shape"/>
</filter>
<clipPath id="clip0_3775_34189">
<rect x="12" y="2" width="40" height="40" rx="14.1176" fill="white"/>
</clipPath>
<clipPath id="clip1_3775_34189">
<rect width="20" height="25" fill="white" transform="translate(23 10)"/>
</clipPath>
</defs>
</svg>
