<svg width="30" height="29" viewBox="0 0 30 29" fill="none" xmlns="http://www.w3.org/2000/svg">
<path d="M21.4505 0.491542H21.416C19.0732 0.496121 16.8008 1.35243 14.9859 2.91241C12.9416 1.0212 11.0022 4.11914e-05 9.20679 4.11914e-05C6.74244 -0.00759081 4.38159 1.04563 2.67169 2.91241C1.45227 4.27091 0.607819 5.95148 0.226842 7.77705C-0.154134 9.60263 -0.0536405 11.5015 0.516324 13.2721C0.516324 13.2721 0.516324 13.3469 0.550822 13.3469H5.11054L7.26441 9.79037L7.26591 9.79343C7.46989 9.43625 7.84037 9.2195 8.23485 9.22561C8.60382 9.25156 8.9383 9.46373 9.13329 9.79343L12.1856 15.957L15.4524 10.2849C15.6249 9.99033 15.9174 9.79648 16.2429 9.75527C16.5698 9.72016 16.8938 9.83159 17.1398 10.0575L20.1201 13.0828C20.5401 13.5133 20.5566 14.22 20.1576 14.6703C19.9596 14.8947 19.6836 15.0259 19.3927 15.0336C19.1017 15.0397 18.8197 14.9221 18.6127 14.7084L16.6028 12.6661L13.0106 18.8297C12.8306 19.1747 12.4871 19.3914 12.1136 19.3975H12.0776C11.6816 19.367 11.3277 19.1228 11.1447 18.7549L8.05636 12.5532L6.58495 15.0107C6.39446 15.3511 6.05998 15.5754 5.688 15.6166H1.55876C1.88124 15.9937 2.27572 16.5615 2.70769 17.0164L14.233 28.6964C14.434 28.904 14.7069 29.0139 14.9874 28.9986C15.2724 28.994 15.5424 28.8734 15.7434 28.6582L27.3047 16.9003C29.0326 15.0427 30 12.5455 30 9.94454C30 7.34355 29.0326 4.84636 27.3047 2.98721C25.7583 1.35091 23.6449 0.448803 21.4505 0.493069V0.491542Z" fill="#7C3AED"/>
</svg>
