<svg width="21" height="21" viewBox="0 0 21 21" fill="none" xmlns="http://www.w3.org/2000/svg">
<path d="M12.0556 15.5556C12.0556 15.8632 11.9643 16.164 11.7934 16.4198C11.6225 16.6756 11.3795 16.875 11.0953 16.9927C10.811 17.1104 10.4983 17.1412 10.1965 17.0812C9.89478 17.0212 9.61761 16.873 9.40006 16.6555C9.18251 16.438 9.03436 16.1608 8.97434 15.859C8.91432 15.5573 8.94512 15.2445 9.06286 14.9603C9.18059 14.676 9.37997 14.4331 9.63578 14.2622C9.89159 14.0912 10.1923 14 10.5 14C10.9126 14 11.3082 14.1639 11.5999 14.4556C11.8917 14.7473 12.0556 15.143 12.0556 15.5556ZM21 10.5C21 12.5767 20.3842 14.6068 19.2304 16.3335C18.0767 18.0602 16.4368 19.406 14.5182 20.2007C12.5996 20.9955 10.4884 21.2034 8.45156 20.7982C6.41476 20.3931 4.54383 19.3931 3.07538 17.9246C1.60693 16.4562 0.606904 14.5852 0.201759 12.5484C-0.203386 10.5116 0.0045495 8.40045 0.79927 6.48182C1.59399 4.5632 2.9398 2.92332 4.66652 1.76957C6.39323 0.615814 8.4233 0 10.5 0C13.2838 0.003088 15.9528 1.11033 17.9212 3.07879C19.8897 5.04725 20.9969 7.71617 21 10.5ZM18.6667 10.5C18.6667 8.88479 18.1877 7.30584 17.2903 5.96284C16.393 4.61984 15.1175 3.5731 13.6253 2.95498C12.133 2.33687 10.4909 2.17514 8.90677 2.49025C7.32259 2.80537 5.86743 3.58317 4.7253 4.72529C3.58317 5.86742 2.80537 7.32258 2.49026 8.90676C2.17515 10.4909 2.33687 12.133 2.95499 13.6252C3.5731 15.1175 4.61985 16.393 5.96285 17.2903C7.30585 18.1877 8.88479 18.6667 10.5 18.6667C12.6652 18.6644 14.7411 17.8032 16.2722 16.2721C17.8032 14.7411 18.6644 12.6652 18.6667 10.5ZM10.5 4.27778C8.14139 4.27778 6.22223 6.02194 6.22223 8.16667V8.55556C6.22223 8.86497 6.34514 9.16172 6.56394 9.38051C6.78273 9.59931 7.07947 9.72222 7.38889 9.72222C7.69831 9.72222 7.99506 9.59931 8.21385 9.38051C8.43264 9.16172 8.55556 8.86497 8.55556 8.55556V8.16667C8.55556 7.30917 9.43056 6.61111 10.5 6.61111C11.5694 6.61111 12.4444 7.30917 12.4444 8.16667C12.4444 9.02417 11.5694 9.72222 10.5 9.72222C10.1906 9.72222 9.89384 9.84514 9.67505 10.0639C9.45625 10.2827 9.33334 10.5795 9.33334 10.8889V11.6667C9.33264 11.9549 9.43867 12.2332 9.63099 12.4479C9.8233 12.6626 10.0883 12.7985 10.3749 12.8294C10.6614 12.8603 10.9493 12.7841 11.183 12.6153C11.4167 12.4466 11.5796 12.1973 11.6404 11.9156C13.4468 11.4606 14.7778 9.95264 14.7778 8.16667C14.7778 6.02194 12.8586 4.27778 10.5 4.27778Z" fill="white"/>
</svg>
