<svg width="40" height="40" viewBox="0 0 40 40" fill="none" xmlns="http://www.w3.org/2000/svg">
<path d="M40 34.9187C40 37.7072 37.7382 40 34.9187 40H5.08133C2.2928 40 0 37.7382 0 34.9187V5.08134C0 2.2928 2.26181 0 5.08133 0H34.9187C37.7072 0 40 2.26182 40 5.08134V34.9187Z" fill="#6366F1"/>
<g style="mix-blend-mode:color-burn">
<path d="M28.1634 29.7916L27.8846 29.3578L30.8641 29.3579L30.6542 28.1352C29.5721 21.8326 26.7825 15.9473 22.5887 11.1197L22 10.5L20 10L0 22V34.9187C0 37.7072 2.26181 40 5.08133 40H16.5L30.5 31L28.1634 29.7916Z" fill="#C9C9C9"/>
</g>
<g clip-path="url(#clip0_3282_37573)">
<path d="M20.5 21.6532C23.6983 21.6532 26.2931 19.0434 26.2931 15.8266C26.2931 12.6098 23.6983 10 20.5 10C17.3017 10 14.7069 12.6098 14.7069 15.8266C14.7069 19.0434 17.3017 21.6532 20.5 21.6532ZM26.2931 23.4133H24.2414C23.7586 23.4133 23.3362 23.6561 23.0948 24.0202L21.6466 26.0838C21.1034 26.8728 19.8966 26.8728 19.3534 26.0838L17.9655 24.0202C17.7241 23.6561 17.2414 23.4133 16.819 23.4133H14.7069C12.1121 23.4133 10 25.5376 10 28.2081V30.3324C10 30.6965 10.3017 31.0607 10.7241 31.0607H30.3362C30.6983 31.0607 31.0603 30.7572 31.0603 30.3324V28.2081C31 25.5376 28.8879 23.4133 26.2931 23.4133Z" fill="white"/>
<path d="M21.2241 23.3525H20.0172C19.5948 23.3525 19.2931 23.7167 19.2931 24.0809C19.2931 24.5057 19.6552 24.8092 20.0172 24.8092H21.2241C21.6466 24.8092 21.9483 24.445 21.9483 24.0809C21.9483 23.656 21.5862 23.3525 21.2241 23.3525Z" fill="white"/>
</g>
<defs>
<clipPath id="clip0_3282_37573">
<rect width="21" height="21" fill="white" transform="translate(10 10)"/>
</clipPath>
</defs>
</svg>
